<svg width="64" height="64" viewBox="0 0 64 64" fill="none" xmlns="http://www.w3.org/2000/svg">
<path d="M29.3333 15.9999C32.2789 15.9999 34.6667 13.6121 34.6667 10.6666C34.6667 7.72107 32.2789 5.33325 29.3333 5.33325C26.3878 5.33325 24 7.72107 24 10.6666C24 13.6121 26.3878 15.9999 29.3333 15.9999Z" stroke="#14AE5C" stroke-width="5" stroke-linecap="round" stroke-linejoin="round"/>
<path d="M48 26.6667C50.9455 26.6667 53.3333 24.2789 53.3333 21.3333C53.3333 18.3878 50.9455 16 48 16C45.0544 16 42.6666 18.3878 42.6666 21.3333C42.6666 24.2789 45.0544 26.6667 48 26.6667Z" stroke="#14AE5C" stroke-width="5" stroke-linecap="round" stroke-linejoin="round"/>
<path d="M53.3333 47.9999C56.2789 47.9999 58.6667 45.6121 58.6667 42.6666C58.6667 39.7211 56.2789 37.3333 53.3333 37.3333C50.3878 37.3333 48 39.7211 48 42.6666C48 45.6121 50.3878 47.9999 53.3333 47.9999Z" stroke="#14AE5C" stroke-width="5" stroke-linecap="round" stroke-linejoin="round"/>
<path d="M24 26.6665C25.7509 26.6665 27.4848 27.0114 29.1024 27.6814C30.7201 28.3515 32.19 29.3336 33.4281 30.5717C34.6662 31.8099 35.6483 33.2797 36.3184 34.8974C36.9884 36.5151 37.3333 38.2489 37.3333 39.9998V49.3332C37.3326 51.5637 36.533 53.7203 35.0795 55.4122C33.626 57.1041 31.6145 58.2196 29.4096 58.5564C27.2046 58.8933 24.9519 58.4293 23.0594 57.2486C21.167 56.0679 19.76 54.2484 19.0933 52.1198C17.9555 48.4487 15.5555 46.0443 11.8933 44.9065C9.7658 44.2401 7.94709 42.8343 6.76628 40.9432C5.58546 39.0522 5.12056 36.8009 5.45568 34.5968C5.79081 32.3928 6.90383 30.3814 8.59333 28.9268C10.2828 27.4722 12.4372 26.6704 14.6666 26.6665H24Z" stroke="#14AE5C" stroke-width="5" stroke-linecap="round" stroke-linejoin="round"/>
</svg>
