<svg width="56" height="56" viewBox="0 0 56 56" fill="none" xmlns="http://www.w3.org/2000/svg">
<path d="M25.6667 14C28.244 14 30.3333 11.9107 30.3333 9.33335C30.3333 6.75602 28.244 4.66669 25.6667 4.66669C23.0893 4.66669 21 6.75602 21 9.33335C21 11.9107 23.0893 14 25.6667 14Z" stroke="white" stroke-width="4" stroke-linecap="round" stroke-linejoin="round"/>
<path d="M42 23.3333C44.5773 23.3333 46.6667 21.244 46.6667 18.6667C46.6667 16.0893 44.5773 14 42 14C39.4227 14 37.3333 16.0893 37.3333 18.6667C37.3333 21.244 39.4227 23.3333 42 23.3333Z" stroke="white" stroke-width="4" stroke-linecap="round" stroke-linejoin="round"/>
<path d="M46.6667 42C49.244 42 51.3333 39.9107 51.3333 37.3334C51.3333 34.756 49.244 32.6667 46.6667 32.6667C44.0893 32.6667 42 34.756 42 37.3334C42 39.9107 44.0893 42 46.6667 42Z" stroke="white" stroke-width="4" stroke-linecap="round" stroke-linejoin="round"/>
<path d="M21 23.3334C22.5321 23.3334 24.0492 23.6351 25.4646 24.2214C26.8801 24.8077 28.1662 25.6671 29.2496 26.7505C30.3329 27.8338 31.1923 29.1199 31.7786 30.5354C32.3649 31.9509 32.6667 33.468 32.6667 35V43.1667C32.666 45.1184 31.9664 47.0054 30.6946 48.4859C29.4227 49.9663 27.6627 50.9423 25.7334 51.2371C23.804 51.5318 21.8329 51.1259 20.177 50.0927C18.5211 49.0596 17.29 47.4676 16.7067 45.605C15.7111 42.3928 13.6111 40.2889 10.4067 39.2934C8.54509 38.7103 6.95372 37.4802 5.92051 35.8255C4.8873 34.1708 4.4805 32.201 4.77374 30.2724C5.06697 28.3438 6.04086 26.5839 7.51918 25.3111C8.9975 24.0384 10.8826 23.3368 12.8333 23.3334H21Z" stroke="white" stroke-width="4" stroke-linecap="round" stroke-linejoin="round"/>
</svg>
